#!OML:ASF H:\ManfredObstacles\Project 1\Capture day 1\Session 1\Male.ASF
:FULLY-SPECIFIED
:DEGREES
498
root -5.69893 16.8689 -12.0512 -158.538 -77.6977 -190.339
lowerback -10.5389 0.315321 -3.36027
upperback 1.63215 0.879922 -0.24701
thorax 7.61041 0.286043 1.7816
lowerneck -3.12135 9.28436 -5.2286
upperneck -6.69119 12.457 1.24309
head -2.01633 6.2814 1.11116
rclavicle -1.01007e-014 4.77083e-015
rhumerus -31.7235 -22.2539 -77.7033
rradius 23.9414
rwrist 33.0081
rhand -0.644291 -6.52094
rfingers 7.12502
rthumb 24.9731 -34.9089
lclavicle -1.01007e-014 4.77083e-015
lhumerus -25.6577 12.4206 84.6927
lradius 17.3022
lwrist -35.1569
lhand -12.9241 7.06623
lfingers 7.12502
lthumb 13.1663 36.6305
rfemur -22.2422 -11.431 21.7006
rtibia 22.8669
rfoot -20.9695 -7.26083
rtoes 23.9507
lfemur -1.398 -10.6127 -7.39868
ltibia 15.9662
lfoot 32.8953 -11.0778
ltoes 22.5287
499
root -5.70108 16.8743 -12.0448 -158.11 -78.1364 -190.776
lowerback -10.5369 0.483231 -3.15394
upperback 1.70484 1.09178 -0.435294
thorax 7.68236 0.400538 1.50213
lowerneck -3.11744 9.20607 -5.10387
upperneck -6.80073 12.3487 1.21349
head -2.03768 6.22551 1.08169
rclavicle 4.20554e-015 -7.60351e-015
rhumerus -31.7361 -22.3227 -77.9354
rradius 23.9632
rwrist 32.5206
rhand -0.864781 -6.46751
rfingers 7.12502
rthumb 24.7618 -34.8847
lclavicle 4.20554e-015 -7.60351e-015
lhumerus -25.6291 12.425 84.5136
lradius 17.4509
lwrist -35.2704
lhand -12.8173 7.17007
lfingers 7.12502
lthumb 13.2693 36.7277
rfemur -22.1293 -11.4724 21.6357
rtibia 22.7956
rfoot -21.1181 -7.52564
rtoes 24.7826
lfemur -1.61943 -10.556 -7.26367
ltibia 16.0734
lfoot 33.1509 -11.109
ltoes 23.4782
500
root -5.70195 16.8817 -12.0382 -157.143 -78.5691 -191.687
lowerback -10.5208 0.745838 -3.02597
upperback 1.70179 1.44348 -0.713447
thorax 7.66288 0.583768 1.19449
lowerneck -3.06597 9.05737 -4.75978
upperneck -6.8183 12.1432 1.17856
head -2.01771 6.11597 1.01831
rclavicle 8.29926e-015 -1.14503e-014
rhumerus -31.9751 -22.76 -77.923
rradius 24.0343
rwrist 32.4702
rhand -0.91909 -6.37989
rfingers 7.12502
rthumb 24.7098 -34.8042
lclavicle 8.29926e-015 -1.14503e-014
lhumerus -25.317 12.2547 84.3345
lradius 17.3719
lwrist -35.3985
lhand -12.585 7.41233
lfingers 7.12502
lthumb 13.4932 36.9552
rfemur -22.1206 -11.4258 21.4718
rtibia 22.7684
rfoot -21.3145 -7.86864
rtoes 25.7247
lfemur -1.92919 -10.4771 -7.22531
ltibia 16.1257
lfoot 33.4123 -11.3188
ltoes 23.7096
501
root -5.69924 16.8868 -12.0354 -155.04 -79.0193 -193.789
lowerback -10.3234 1.13677 -2.99673
upperback 1.59262 1.98458 -1.26375
thorax 7.43131 0.863986 0.680676
lowerneck -2.75156 8.7864 -3.9947
upperneck -6.89017 11.7665 1.21732
head -2.0327 5.90952 0.90066
rclavicle -5.10628e-015 3.67752e-015
rhumerus -32.6296 -23.986 -77.7249
rradius 24.1613
rwrist 33.2258
rhand -0.509236 -6.10233
rfingers 7.12502
rthumb 25.1025 -34.4723
lclavicle -5.10628e-015 3.67752e-015
lhumerus -24.2712 10.3979 84.3399
lradius 16.7156
lwrist -34.2697
lhand -12.7328 7.72476
lfingers 7.12502
lthumb 13.3508 37.277
rfemur -22.0609 -11.3809 21.1011
rtibia 22.7258
rfoot -21.5258 -8.39848
rtoes 26.046
lfemur -2.23296 -10.5878 -7.3673
ltibia 16.1907
lfoot 33.7303 -11.1023
ltoes 24.6718
502
root -5.69404 16.8905 -12.0304 -152.536 -79.5499 -196.251
lowerback -10.173 1.17254 -3.25848
upperback 1.50624 2.06483 -1.4277
thorax 7.24801 0.898271 0.662845
lowerneck -2.49942 8.74263 -3.93715
upperneck -6.96378 11.6964 1.11323
head -2.087 5.87557 0.84694
rclavicle -3.14328e-014 -1.51076e-014
rhumerus -32.827 -24.5219 -77.431
rradius 24.0385
rwrist 34.1397
rhand -0.177059 -5.86445
rfingers 7.12502
rthumb 25.4208 -34.1895
lclavicle -3.14328e-014 -1.51076e-014
lhumerus -24.3128 9.81255 84.5444
lradius 16.9211
lwrist -33.2021
lhand -13.4603 7.92848
lfingers 7.12502
lthumb 12.6494 37.5254
rfemur -22.0478 -11.5523 20.783
rtibia 22.6591
rfoot -21.6564 -8.95335
rtoes 25.6138
lfemur -2.67462 -10.8012 -7.46174
ltibia 16.348
lfoot 34.1039 -10.5854
ltoes 26.5455
503
root -5.68931 16.8956 -12.022 -151.199 -80.1835 -197.512
lowerback -10.1117 0.890899 -3.56361
upperback 1.47914 1.70132 -1.05272
thorax 7.17589 0.703164 1.16976
lowerneck -2.3288 8.9545 -4.74449
upperneck -7.07501 11.9679 0.933196
head -2.20502 6.03494 0.900615
rclavicle -3.6682e-014 9.93923e-016
rhumerus -32.4182 -23.8022 -77.151
rradius 23.6783
rwrist 34.5343
rhand -0.13352 -5.89682
rfingers 7.12502
rthumb 25.4625 -34.2159
lclavicle -3.6682e-014 9.93923e-016
lhumerus -24.5039 11.2363 84.8861
lradius 17.1786
lwrist -33.2246
lhand -14.0405 8.13873
lfingers 7.12502
lthumb 12.0901 37.7694
rfemur -22.0445 -11.5481 20.7206
rtibia 22.631
rfoot -21.9162 -9.49166
rtoes 26.1785
lfemur -3.12391 -10.9755 -7.25305
ltibia 16.5031
lfoot 34.3869 -10.5469
ltoes 27.4842
504
root -5.6837 16.899 -12.0134 -150.613 -80.9312 -198.097
lowerback -9.96951 0.806681 -3.51067
upperback 1.47758 1.56183 -0.811058
thorax 7.09327 0.63495 1.36976
lowerneck -2.17342 9.04283 -5.40529
upperneck -7.16155 12.0841 0.982592
head -2.31612 6.10931 1.00684
rclavicle -3.1849e-014 -6.80837e-015
rhumerus -32.1875 -23.521 -76.8943
rradius 23.4012
rwrist 34.8334
rhand -0.0842068 -5.99232
rfingers 7.12502
rthumb 25.5097 -34.3046
lclavicle -3.1849e-014 -6.80837e-015
lhumerus -24.5219 11.6167 85.3485
lradius 17.3414
lwrist -32.8884
lhand -14.4271 8.20788
lfingers 7.12502
lthumb 11.7172 37.8602
rfemur -21.975 -11.4652 20.807
rtibia 22.6743
rfoot -22.2518 -10.0692
rtoes 27.1921
lfemur -3.48826 -10.4299 -6.78403
ltibia 16.5753
lfoot 35.0739 -11.3231
ltoes 27.6341
505
root -5.67857 16.9009 -12.0028 -148.181 -81.6006 -200.533
lowerback -9.86298 0.891252 -3.50065
upperback 1.48811 1.67425 -0.897558
thorax 7.04107 0.692876 1.28832
lowerneck -2.10181 9.00697 -5.48372
upperneck -7.10171 12.0312 0.911473
head -2.30719 6.08694 0.996603
rclavicle -7.237e-015 2.83268e-015
rhumerus -32.288 -24.3446 -76.5652
rradius 23.232
rwrist 35.6205
rhand -0.0774656 -5.98501
rfingers 7.12502
rthumb 25.5162 -34.2964
lclavicle -7.237e-015 2.83268e-015
lhumerus -24.3705 10.9183 85.6896
lradius 17.5118
lwrist -32.3928
lhand -14.3686 8.12589
lfingers 7.12502
lthumb 11.7737 37.775
rfemur -21.9766 -11.6518 20.6396
rtibia 22.7869
rfoot -22.511 -10.5994
rtoes 27.4082
lfemur -3.82971 -10.1721 -6.64842
ltibia 16.5735
lfoot 35.5537 -11.6738
ltoes 28.087
506
root -5.67489 16.9014 -11.9892 -143.093 -82.0467 -205.563
lowerback -9.85939 0.903195 -3.90791
upperback 1.49436 1.74913 -1.06559
thorax 7.03693 0.715373 1.35141
lowerneck -2.3168 9.06514 -5.37562
upperneck -6.79626 12.1124 0.702292
head -2.14778 6.12788 0.931566
rclavicle -9.67212e-015 -1.01629e-014
rhumerus -32.3535 -24.6938 -76.4528
rradius 23.1835
rwrist 36.0093
rhand -0.160823 -6.05511
rfingers 7.12502
rthumb 25.4363 -34.3779
lclavicle -9.67212e-015 -1.01629e-014
lhumerus -24.2516 10.6424 85.8454
lradius 17.838
lwrist -32.4326
lhand -14.1156 8.13332
lfingers 7.12502
lthumb 12.0176 37.7683
rfemur -22.0918 -11.7164 20.0433
rtibia 22.9959
rfoot -22.9181 -11.1325
rtoes 27.8688
lfemur -4.21564 -9.95735 -6.92892
ltibia 16.5211
lfoot 35.9623 -11.6051
ltoes 29.1963
